<?xml version="1.0" encoding="UTF-8"?>
<svg id="uuid-ce7300ef-adb8-4511-8c24-196c36275562" data-name="Logo" xmlns="http://www.w3.org/2000/svg" width="1000" height="500" xmlns:xlink="http://www.w3.org/1999/xlink" viewBox="0 0 1000 500">
  <defs>
    <style>
      .uuid-92375e3c-86f4-44b8-a36e-99f627cf321c {
        fill: #b29e84;
      }

      .uuid-e07ba50f-58de-4d1b-950a-83d1a21a7fd3 {
        mask: url(#uuid-280ec084-296d-451a-87ce-20fb903aeba3);
      }

      .uuid-ddbd8dc4-e21c-4d47-8399-12cc14273f47 {
        fill: #b1b4b5;
      }

      .uuid-49a4f523-cc41-49a7-be63-714d63ef97e6 {
        filter: url(#uuid-1125aa1b-c987-4905-aa4b-80eb2b06c496);
      }

      .uuid-5d1d2218-6777-4a5f-91db-db7351294655 {
        fill: #f2f2f2;
      }
    </style>
    <symbol id="uuid-506728a8-fc5c-4041-9d53-7822606688aa" data-name="brandmark" viewBox="0 0 800 800">
      <g>
        <path id="uuid-21158f2a-8585-4adc-aee0-3e3f6d439436" data-name="coffee_bean_top" class="uuid-92375e3c-86f4-44b8-a36e-99f627cf321c" d="M684.9676,71.2691c-14.5232-53.3599-116.2924-65.7543-141.627-68.8398C369.7297-18.7147,193.5934,101.0396,99.4184,249.6498-2.0219,409.7247-27.7179,633.816,31.029,665.6533c41.6019,22.5457,50.6119-177.6927,294.45-284.3458-.3379-29.707-2.8452-59.3604-7.5084-88.7186-1.7546-11.0466-3.496-21.5541-4.914-29.1937-.7766-4.1841-4.4213-7.2162-8.6769-7.2188h-.2151c-4.8746-.0031-8.8248-3.9556-8.8248-8.8303h0c0-2.9885,1.5116-5.7742,4.0171-7.4032l13.9741-9.0852,16.5276-10.7297,18.0265-11.6972,16.6036-10.7753,14.0051-9.0668c2.5137-1.6274,4.0314-4.4179,4.0314-7.4125v-6.1649c0-2.8359,1.3629-5.4879,3.6548-7.1581,3.0851-2.2484,7.9565-4.8533,13.9667-4.8533,5.9996,0,10.824,2.6155,13.8702,4.8726,2.2592,1.6739,3.5994,4.306,3.5994,7.1177v6.2122c0,2.9913,1.5144,5.7792,4.0237,7.4075l78.9962,51.2581c2.5093,1.6282,4.0237,4.4162,4.0237,7.4075v.0449c0,4.8768-3.9534,8.8303-8.8302,8.8303h-.397c-4.311,0-7.9919,3.1129-8.7076,7.3641l-4.3527,25.8503c-2.1024,12.486-3.8136,25.028-5.1339,37.6072,170.9121-74.0197,222.528-201.3297,207.7288-255.7031Z"/>
        <path id="uuid-96347dfa-be56-4e28-805d-8bbfe9b079c5" data-name="coffee_bean_bottom" class="uuid-92375e3c-86f4-44b8-a36e-99f627cf321c" d="M768.971,134.3467c-41.6036-22.5467-50.6127,177.7097-294.481,284.3593l6.6107,208.5996c.1575,4.9698-3.8176,9.0896-8.7898,9.1099l-143.152,.5845c-4.9684,.0203-8.9755-4.061-8.8641-9.0282l3.4859-155.3859c-171.7279,73.954-223.577,201.6634-208.7484,256.1451,14.5233,53.3599,116.2924,65.7543,141.627,68.8398,173.6108,21.144,349.7473-98.6103,443.9222-247.2205,101.4404-160.075,127.1364-384.1662,68.3895-416.0035Z"/>
      </g>
    </symbol>
    <symbol id="uuid-d48bbdda-ebab-4172-aace-2cf3c1a50b27" data-name="wordmark" viewBox="0 0 1500 300">
      <g>
        <g id="uuid-b94f4761-a545-4d40-874f-2d7ffacc0fb7" data-name="trinity_university">
          <path class="uuid-ddbd8dc4-e21c-4d47-8399-12cc14273f47" d="M562.9064,291.3374v-45.8451c.5388,0,3.1448-.0124,3.1448-.0124q11.5521-.0836,13.3493,11.2835l.0445,.2752h3.4748v-14.7152h-48.2135v14.7152h3.4809l.0404-.2752c1.7131-11.3835,2.1465-11.3754,13.22-11.2835,0,0,2.7318,.0124,3.2748,.0124v45.8451c0,5.1981-1.2865,5.3598-8.1203,5.3598h-.328v2.8456l12.5476-.1658,6.0368,.0836,6.4903,.0822,.0033-.3273v-2.5183h-.328c-6.8312,0-8.1177-.1617-8.1177-5.3598h0Z"/>
          <path class="uuid-ddbd8dc4-e21c-4d47-8399-12cc14273f47" d="M629.5023,256.2076c0,10.7194-7.1762,11.5478-17.3157,11.5478l-.8141,.0097c-.9455,.0109-1.9212,0-2.8743-.1507v-22.2097c.5163-.0166,2.8983-.0959,2.8983-.0959l6.2231-.1479c8.9961,0,11.8827,2.6868,11.8827,11.0468h0Zm9.5446,35.8255l-.5122-.6463c-2.3642-3.0976-11.6951-17.0158-14.5228-21.5512,9.9354-1.2393,14.594-5.9854,14.594-14.9658,0-12.712-8.1149-12.712-18.3934-12.712l-10.5427,.1028-5.2633,.0629-12.1209-.1739-.0021,.3342v2.5114h.3273c4.215,0,6.0986,.319,6.9517,1.1721,.7504,.7532,.7504,2.0623,.7504,4.0506v41.255c0,1.9882,0,3.3016-.7504,4.0574-.8531,.8531-2.7367,1.1667-6.9517,1.1667h-.3273v2.8456l12.1279-.1658,12.1133,.1658v-2.8456h-.3273c-4.2108,0-6.0978-.3137-6.9473-1.1667-.7374-.738-.7519-2.0115-.7519-3.9287v-20.5119h.3047c1.8561-.0095,3.6172-.0177,5.3678,.5683,2.3575,.8396,13.407,17.4541,19.8121,27.7298l.1028,.1548,6.2991-.1658,6.3284,.1739,.0083-.3355v-2.4937l-.304-.0205c-3.9445-.3026-5.3843-2.1294-7.3706-4.6681h0Z"/>
          <path class="uuid-ddbd8dc4-e21c-4d47-8399-12cc14273f47" d="M678.859,299.5427l.0042-.3273v-2.5183h-.3281c-6.3569,0-7.6995-.1781-7.6995-5.3598v-40.9839c0-5.1612,1.4707-5.3583,7.6995-5.3583h.3281v-2.8456l-.3365,.0081-11.7917,.1657-12.1101-.1739-.0048,.3342v2.5114h.3308c6.3517,0,7.6999,.1821,7.6999,5.3583v40.9839c0,5.1817-1.3483,5.3598-7.6999,5.3598h-.3308v2.8456l12.1313-.1658,12.1076,.1658h0Z"/>
          <path class="uuid-ddbd8dc4-e21c-4d47-8399-12cc14273f47" d="M711.1202,299.2154v-2.5183h-.3309c-6.2498,0-7.3617-.3985-7.3617-5.3598v-39.4858c1.1414,1.5433,35.2396,47.5254,35.2396,47.5254h7.1668v-49.0234c0-5.027,.8568-5.3583,6.864-5.3583h.3309v-2.8456l-9.8773,.1739-9.8507-.1739-.0042,.3342v2.5114h.3267c6.2554,0,7.3687,.3985,7.3687,5.3583v38.3383c-1.14-1.5063-35.3083-46.5395-35.3083-46.5395l-7.2818,.1712-7.5034-.1739-.0042,.3342v2.5114h.3281c5.8347,0,7.3673,.2163,7.3673,5.3583v40.9839c0,4.9612-1.1162,5.3598-7.3673,5.3598h-.3281v2.8497l10.1213-.1698,10.1003,.1698,.0042-.3314h0Z"/>
          <path class="uuid-ddbd8dc4-e21c-4d47-8399-12cc14273f47" d="M776.0717,242.3235l-12.1125-.1739v2.8456h.3267c6.3507,0,7.7025,.1821,7.7025,5.3583v40.9839c0,5.1817-1.3518,5.3598-7.7025,5.3598h-.3267v2.8456l12.1237-.1658,12.1139,.1658,.0028-.3273v-2.5183h-.3309c-6.3493,0-7.6983-.1781-7.6983-5.3598v-40.9839c0-5.1612,1.4639-5.3583,7.6983-5.3583h.3309v-2.8456l-.3365,.0081-11.7914,.1657h0Z"/>
          <path class="uuid-ddbd8dc4-e21c-4d47-8399-12cc14273f47" d="M845.948,242.3235h-48.2201v14.7152h3.4846l.0392-.2752c1.7107-11.3835,2.1398-11.3754,13.2203-11.2835,0,0,2.7301,.0124,3.2728,.0124v45.8451c0,5.1981-1.283,5.3598-8.1175,5.3598h-.3323v2.8456l12.5514-.1658,6.0367,.0836,6.4937,.0822v-2.8456h-.3309c-6.8345,0-8.1147-.1617-8.1147-5.3598v-45.8451c.5314,0,3.1396-.0124,3.1396-.0124q11.5572-.0836,13.3563,11.2835l.0379,.2752h3.4832v-14.7152h0Z"/>
          <path class="uuid-ddbd8dc4-e21c-4d47-8399-12cc14273f47" d="M911.2136,242.1577l-9.036,.1657-9.3501-.1739v2.6798h.3267c2.7779,0,5.6104,.2972,5.6104,2.5128,.0042,.0493,.007,.1041,.007,.1561,0,.9284-.502,2.1363-1.4527,3.507-.014,.0247-9.524,16.6748-11.1969,19.6121-.5525-.912-12.3425-20.3502-12.3425-20.3502-.0028-.0041-.3001-.456-.3001-.456-.4445-.649-.8666-1.2693-.8666-2.0157,0-.1245,.0126-.2574,.0365-.3902,.3926-2.2212,2.6039-2.3402,5.4127-2.4936l1.6237-.0986-.0028-.3164v-2.3471l-12.6327,.1739-12.6944-.1739-.0028,.3342v2.3183l.3001,.0273c6.0436,.5422,7.8455,3.4042,11.7802,9.691l2.6923,4.2122v-.0013l7.9465,12.6256c1.8874,2.877,2.0375,3.3823,2.0375,6.7661v13.2143c0,5.1981-1.2999,5.3598-8.2031,5.3598h-.3309v2.8456l6.5372-.0822,6.0913-.0836,6.0885,.0836,6.5274,.0822,.0042-.3273v-2.5183h-.3282c-6.9032,0-8.203-.1617-8.203-5.3598v-12.879c0-1.2762,.4473-3.3467,1.7023-5.3473l11.7115-18.5687c.0042,0,1.4878-2.4855,1.4878-2.4855,2.3516-4.0274,3.9038-6.6894,9.064-7.2275l.2931-.0342v-2.6456l-.338,.0081h0Z"/>
          <path class="uuid-ddbd8dc4-e21c-4d47-8399-12cc14273f47" d="M995.8652,242.5125l-10.7832-.174-.0028,.3205v2.3101h.3155c8.8088,0,8.8088,.6121,8.8088,5.3734v28.4282c0,12.327-5.3874,17.5854-18.0159,17.5854-5.5571,0-9.5086-1.2694-12.0817-3.8835-2.6054-2.6443-3.8295-6.714-3.7426-12.4422v-29.8276c0-1.9856,0-3.2959,.7572-4.0533,.8609-.86,2.768-1.1804,7.0392-1.1804h.3155v-2.6306l-12.236,.174-5.7407-.0822-6.0577-.0918-.0027,.3205v2.3101h.3155c3.9221,0,5.78,.3301,6.6242,1.1749,.7515,.7517,.7515,2.0157,.7502,3.9301v30.8725c0,12.8215,7.0125,19.0535,21.4388,19.0535,18.1085,0,25.4955-6.1745,25.4955-21.3129v-28.613c-.0014-1.9006-.0028-3.1563,.7572-3.9163,.8428-.845,2.7357-1.1887,6.5316-1.1887h.3155v-2.6306l-.3239,.0055-10.4776,.1686h0Z"/>
          <path class="uuid-ddbd8dc4-e21c-4d47-8399-12cc14273f47" d="M1056.2189,242.3385l-.0028,.3205v2.3101h.3169c6.1124,0,7.8736,.2301,7.8736,5.3734v38.3795c-1.0979-1.4461-35.2578-46.3821-35.2578-46.3821l-7.3477,.1726-7.5664-.1753-.0042,.3218v2.3101h.3155c5.9117,0,7.4585,.2137,7.4585,5.3734v40.9908c0,4.9749-1.1274,5.372-7.4585,5.372h-.3155v2.632l10.2097-.1739,10.1914,.1739,.0014-.3218v-2.3102h-.3156c-6.331,0-7.4585-.3971-7.4585-5.372v-39.5352c1.105,1.4858,35.1708,47.3653,35.1708,47.3653h7.2342v-48.8209c0-5.042,.8736-5.3734,6.9509-5.3734h.3155v-2.6306l-9.9544,.174-10.3569-.174h0Z"/>
          <path class="uuid-ddbd8dc4-e21c-4d47-8399-12cc14273f47" d="M1097.3408,242.5125l-12.2205-.174-.0028,.3205v2.3101h.3169c6.4363,0,7.7978,.1793,7.7978,5.3734v40.9908c0,5.1926-1.3616,5.372-7.7978,5.372h-.3169v2.6306l12.2373-.1725,12.2205,.1725,.0027-.3204v-2.3102h-.3155c-6.4348,0-7.7951-.1794-7.7951-5.372v-40.9908c0-5.1762,1.4878-5.3734,7.7951-5.3734h.3155v-2.6306l-.3225,.0055-11.9148,.1686h0Z"/>
          <path class="uuid-ddbd8dc4-e21c-4d47-8399-12cc14273f47" d="M1165.3661,242.5125l-9.5142-.174-.0027,.3205v2.102l1.3868,.1876c2.1174,.2532,5.0158,.6025,5.2051,2.6606,.1725,.8641,.0603,2.0267-.3295,3.4878,.0056-.019-11.8811,33.6085-13.8934,39.2983-.5777-1.5939-14.2313-39.3242-14.2313-39.3242-.5216-1.5474-.7573-2.5923-.7573-3.3865,0-.1136,.0043-.2218,.0155-.3273,0-2.0512,2.7175-2.2443,5.1167-2.4155l1.907-.1684-.0098-.289v-2.1458l-12.1532,.174-12.1364-.174-.0015,.3205v2.1417h.3155c4.5979,0,5.5038,.441,7.8161,6.4894l18.4141,47.8733h6.0928l19.0886-47.8691c1.5873-4.875,2.1061-5.3612,6.9621-6.5019l.244-.0561v-2.3979l-.3267,.0055-9.2085,.1686h0Z"/>
          <path class="uuid-ddbd8dc4-e21c-4d47-8399-12cc14273f47" d="M1180.4444,242.344v2.6251h.3155c4.2712,0,6.1782,.3204,7.0393,1.1804,.7572,.7573,.7558,2.0705,.7558,4.0561v41.0962c0,1.9856,.0014,3.2975-.7558,4.0547-.861,.8614-2.768,1.1818-7.0393,1.1818h-.3155v2.6251h46.5121v-16.846h-5.0803l-.0294,.2834c-1.1569,11.5383-1.635,13.0186-10.2532,13.1843h-14.8034v-24.5501h6.2765c7.889,0,7.9661,1.1653,8.2241,5.0269l.3632,3.6096,.2847-.0178h4.0328v-20.7103h-4.3498v.3164c0,7.8382-.9661,8.3011-8.555,8.3011h-6.2765v-22.4576h13.9649c10.3765,0,10.4172,.6272,11.0791,11.0782l.0308,.4669h5.0915v-14.5044h-46.5121Z"/>
          <path class="uuid-ddbd8dc4-e21c-4d47-8399-12cc14273f47" d="M1323.8623,266.8586l-9.7161-3.4303c-4.6456-1.9103-6.6339-4.6764-6.6339-9.2392,0-6.1388,3.9038-9.1227,11.9358-9.1227,10.9149,0,11.3259,5.2062,11.7606,10.7208l.2889,3.0097,.2875-.011h5.0466v-14.2565l-.2075-.0766c-5.9567-2.1815-11.5221-3.1975-17.5155-3.1975-12.4419,0-19.5793,5.6282-19.5793,15.4438,0,10.2292,7.753,13.0062,15.2507,15.6902l2.05,.6916c6.9481,2.3088,14.1317,4.6927,14.1317,12.8967,0,8.7174-7.6842,10.5469-14.1317,10.5469-12.5079,0-12.7842-5.346-13.1333-12.1135l-.2623-3.7918-.293,.011h-5.9777v15.6629l.1879,.0822c5.4056,2.4059,11.5894,3.6247,18.3777,3.6247,15.7919,0,23.4678-5.461,23.4678-16.6982,0-10.1593-7.5762-13.695-15.3348-16.4433h0Z"/>
          <path class="uuid-ddbd8dc4-e21c-4d47-8399-12cc14273f47" d="M1362.1139,242.5125l-12.2191-.174-.0028,.3205v2.3101h.3141c6.4348,0,7.7964,.1793,7.7964,5.3734v40.9908c0,5.1926-1.3617,5.372-7.7964,5.372h-.3141v2.6306l12.2346-.1725,12.2219,.1725,.0014-.3204v-2.3102h-.3141c-6.4335,0-7.7964-.1794-7.7964-5.372v-40.9908c0-5.1762,1.4877-5.3734,7.7964-5.3734h.3141v-2.6306l-.3211,.0055-11.9148,.1686h0Z"/>
          <path class="uuid-ddbd8dc4-e21c-4d47-8399-12cc14273f47" d="M1383.2666,242.5097v14.5045h4.8125l.0407-.2672c1.7288-11.3918,2.1651-11.3877,13.3676-11.2958,0,0,2.7973,.015,3.3245,.0178v45.8643c0,5.2077-1.3026,5.372-8.2198,5.372h-.3141v2.6306l6.4824-.0876,6.1755-.0848,6.1629,.0848,6.4811,.0876,.0014-.3204v-2.3102h-.3168c-6.9144,0-8.2171-.1643-8.2171-5.372v-45.8643c.5245-.0028,3.1971-.0151,3.1971-.0151q11.6806-.0836,13.4965,11.2946l.042,.2657h4.811v-14.5045h-51.3274Z"/>
          <path class="uuid-ddbd8dc4-e21c-4d47-8399-12cc14273f47" d="M1499.6746,242.344s-9.0991,.1686-9.1159,.1686c-.0181,0-9.437-.174-9.437-.174l-.0027,.3205v2.1417h.3155c2.81,0,5.6819,.3012,5.6819,2.5278,.0028,.0534,.0041,.1083,.0041,.163,0,1.1613-.7894,2.5348-1.468,3.5056-.0141,.022-9.6684,16.7667-11.3245,19.6396-.5315-.8669-12.4828-20.3762-12.4828-20.3762-.0027-.0068-.307-.4615-.307-.4615-.4487-.6505-.8736-1.2723-.8736-2.0131,0-.1259,.0112-.2589,.0394-.3943,.3981-2.2362,2.6403-2.3581,5.4771-2.5115l1.6307-.0986-.0042-.2972v-2.1458l-12.742,.174-12.8123-.174-.0028,.3205v2.1144l.2875,.0259c6.1137,.5437,7.9324,3.4125,11.9162,9.6966l2.7203,4.219,8.0222,12.6268c1.9098,2.8743,2.0641,3.3811,2.0641,6.773v13.2186c0,5.2077-1.3167,5.372-8.3026,5.372h-.3156v2.6306l6.5245-.0862,6.2176-.0862,6.2077,.0862,6.5203,.0862,.0015-.3204v-2.3102h-.3156c-6.9873,0-8.3026-.1643-8.3026-5.372v-12.8845c0-1.2735,.4529-3.3481,1.7261-5.35l11.8279-18.5729,1.5061-2.4936c2.3726-4.0272,3.9416-6.6894,9.1608-7.2331l.2833-.0301v-2.4319l-.3254,.0067h0Z"/>
          <path class="uuid-ddbd8dc4-e21c-4d47-8399-12cc14273f47" d="M1274.5877,256.2034c0,10.7277-7.1795,11.5561-17.3204,11.5561l-.8105,.0069c-.9507,.0123-1.9294,0-2.8858-.1492v-22.2235c.502-.0165,2.8858-.0932,2.8858-.0932l6.2442-.1478c8.9981,0,11.8867,2.6839,11.8867,11.0507h0Zm9.517,35.8132s-.5034-.6368-.5091-.6464c-2.374-3.1125-11.7157-17.0418-14.5271-21.5566,9.932-1.231,14.593-5.9773,14.593-14.9467,0-12.6982-8.1063-12.6982-18.3707-12.6982l-10.535,.1069-5.2626,.0589-12.0999-.1698-.0027,.3204v2.5004h.3156c4.2151,0,6.0996,.3164,6.955,1.1723,.7558,.7558,.7558,2.0718,.7558,4.0616v41.2289c0,1.9884,0,3.303-.7558,4.0602-.854,.8545-2.7386,1.1709-6.955,1.1709h-.3156v2.8209l12.1097-.1712,12.0915,.1712,.0028-.3191v-2.5018h-.3169c-4.2151,0-6.0969-.3163-6.9523-1.1709-.7389-.7408-.7544-2.0129-.7544-3.9314v-20.5118c.1529,0,.3057-.0015,.3057-.0015,1.8622-.0068,3.6204-.0137,5.3803,.571,2.3516,.8339,13.3998,17.4417,19.8094,27.7133l.094,.1535,6.2876-.1726,6.317,.1767,.0043-.3246v-2.4785l-.2902-.022c-3.9501-.2972-5.386-2.1293-7.3743-4.664h0Z"/>
        </g>
        <g id="uuid-d46e1d61-190e-43e2-b9d3-3aa600c2ae45" data-name="coffee_club">
          <path class="uuid-5d1d2218-6777-4a5f-91db-db7351294655" d="M219.2168,0c-2.3793,4.5742-5.7191,8.5527-10.0146,11.9349-4.2997,3.3869-8.6424,5.0757-13.0322,5.0757-9.5126-3.8412-18.8408-7.6353-27.9852-11.3859-9.1479-3.747-20.3028-5.6248-33.4722-5.6248C97.0303,0,65.1614,12.209,39.097,36.6276,13.0322,61.0461,0,89.1686,0,120.9945c0,24.3279,8.231,44.6317,24.6926,60.9083,16.4621,16.2818,37.129,24.4191,62.0065,24.4191,18.8368,0,35.4828-5.0762,49.9338-15.2276,14.447-10.1514,25.5162-24.0963,33.1982-41.84l-4.9384-2.1954c-3.1123,6.4049-6.405,12.3038-9.8774,17.6965-3.4765,5.3979-8.0036,10.5632-13.5807,15.5021-5.5818,4.9379-11.6179,8.963-18.1078,12.0712-6.4951,3.1123-14.1299,4.6644-22.9095,4.6644-12.0723,0-20.4401-3.7465-25.1044-11.2486-4.6644-7.498-6.996-18.3829-6.996-32.6496,0-7.8617,1.1402-16.8729,3.4294-27.0242,2.285-10.1524,5.213-19.9821,8.7796-29.4943,3.5667-9.509,8.1368-19.4801,13.7181-29.9061,5.5777-10.426,11.7977-20.2086,18.657-29.357,6.8588-9.1438,13.9455-16.23,21.2632-21.2632,7.3131-5.0286,14.5412-7.5447,21.6746-7.5447,10.9745,0,17.8763,3.7034,20.7146,11.1113,2.8337,7.4079,4.2526,20.5349,4.2526,39.3716,0,1.2816-.1373,7.1805-.4113,17.696-.2746,10.5202-.4119,17.3318-.4119,20.4401h5.213L224.1552,0h-4.9384Z"/>
          <path class="uuid-5d1d2218-6777-4a5f-91db-db7351294655" d="M331.9783,124.5617c-6.687-97.5187-144.7139-49.0596-142.3927,26.8877-1.2278,25.1492,12.982,40.9028,30.4531,49.9337,49.3107,19.2976,112.8706-26.1221,111.9396-76.8213Zm-49.2484-1.2355c-10.0159,21.43-29.2966,75.5956-46.5028,78.3328-17.4716-2.1286-5.3304-26.591,1.0941-45.4081,9.3896-23.3046,24.8341-58.4406,37.3151-74.6278,5.4468-6.7011,12.1972-9.0629,17.4227-4.2525,5.5536,13.0514-1.4073,22.9683-9.3291,45.9555Z"/>
          <path class="uuid-5d1d2218-6777-4a5f-91db-db7351294655" d="M343.2606,218.7363c5.1531-4.9338,11.3132-7.3986,18.4854-7.3986,6.4359,0,12.0868,1.8715,16.9544,5.5839,6.4564-8.9529,12.1964-18.2055,17.2026-27.7687,6.4003-12.2351,11.935-25.3882,16.5989-39.4489,4.6644-14.0607,8.3683-27.0294,11.1118-38.9039,2.744-11.8704,4.8442-21.5506,6.3107-29.0394h-7.4109l3.5667-8.7797h5.7646c3.8412-18.1084,9.0542-34.0214,15.6389-47.7394,6.5847-13.7186,14.8152-20.5773,24.6926-20.5773,4.2054,0,6.3102,.8231,6.3102,2.4689,0,1.2821-2.0146,4.3002-6.0356,9.0542-4.0256,4.7586-6.0361,10.3358-6.0361,16.7361,0,5.3072,1.9762,9.6499,5.9332,13.0322,.1107,.0948,.2285,.1745,.3404,.2667,.9885-1.2651,2.0001-2.5405,3.0516-3.8334,9.0955-11.1891,20.0953-21.0189,32.9962-29.4935-1.5633-2.2184-3.5756-4.1866-6.0452-5.899-6.7307-4.6644-15.4376-6.9965-26.1248-6.9965-14.6354,0-28.4436,4.2525-41.4287,12.7581-12.9896,8.5051-24.0543,18.3824-33.1982,29.631-9.1484,11.2491-15.913,21.4476-20.3027,30.592h-29.357l-3.5667,8.7797h28.8079c-3.2921,8.0379-6.679,16.7141-10.1514,26.0254-3.4765,9.3154-7.6394,23.5616-12.4835,42.7365-4.8483,19.1758-9.7401,38.7154-14.6785,58.6238-4.9384,19.9042-10.1042,33.6915-15.5016,41.3647-5.3927,7.6702-12.6633,11.5068-21.8118,11.5068-2.5591,0-3.8412-.8237-3.8412-2.4649,0-.7335,2.2892-3.563,6.8593-8.4927,4.5742-4.9297,6.8593-11.1421,6.8593-18.6268,0-6.2113-2.4822-11.2794-7.4509-15.2061-4.96-3.9268-10.7559-5.8896-17.3749-5.8896-7.1722,0-13.3323,2.4648-18.4854,7.3986-5.1443,4.9256-7.7208,10.5889-7.7208,16.9856,0,9.131,3.5497,16.5768,10.6401,22.3302,7.0995,5.7534,15.8064,8.6301,26.1248,8.6301,15.0002,0,28.9928-4.2485,41.9778-12.7371,.3235-.2117,.6301-.4345,.951-.6479-3.9249-4.9244-5.893-10.7827-5.893-17.5752,0-6.3967,2.5765-12.06,7.7208-16.9856Z"/>
          <path class="uuid-5d1d2218-6777-4a5f-91db-db7351294655" d="M541.038,72.9811h-35.3926c3.8412-18.1084,9.0542-34.0214,15.6389-47.7394,6.5848-13.7186,14.8152-20.5773,24.6916-20.5773,4.2064,0,6.3107,.8231,6.3107,2.4689,0,1.2821-2.0151,4.3002-6.0361,9.0542-4.0251,4.7586-6.0361,10.3358-6.0361,16.7361,0,5.3072,1.9762,9.6499,5.9337,13.0322,3.9524,3.3868,8.6936,5.0762,14.2154,5.0762,7.3567,0,13.568-2.3322,18.6268-6.9965,5.0588-4.6644,7.5923-10.4685,7.5923-17.422,0-8.4108-3.3654-14.9531-10.092-19.6169-6.7297-4.6644-15.4366-6.9965-26.1248-6.9965-14.6349,0-28.4426,4.2525-41.4277,12.7581-.0686,.0449-.1335,.0925-.202,.1375,2.6943,3.8235,4.0463,8.3953,4.0463,13.7179,0,6.9535-2.5341,12.7576-7.5923,17.422-5.0588,4.6644-11.2706,6.9965-18.6268,6.9965-5.3672,0-9.9904-1.6099-13.8751-4.8094-7.6121,9.7424-13.3659,18.6652-17.2512,26.7585h11.8008l-3.5667,8.7797h-12.3499c-3.2921,8.0379-6.679,16.7141-10.1514,26.0254-3.4766,9.3154-7.6394,23.5616-12.4836,42.7365-4.8483,19.1758-9.7401,38.7154-14.6785,58.6238-4.9384,19.9042-10.1042,33.6915-15.5016,41.3647-5.3928,7.6702-12.6634,11.5068-21.8118,11.5068-2.5591,0-3.8412-.8237-3.8412-2.4649,0-.7335,2.2892-3.563,6.8593-8.4927,4.5742-4.9297,6.8593-11.1421,6.8593-18.6268,0-6.2113-2.4822-11.2794-7.4509-15.2061-.1373-.1086-.2819-.2-.4205-.3057-1.8033,2.5005-3.6528,4.9818-5.5696,7.4349-8.5609,10.9483-19.1386,20.589-31.6981,28.9406,1.3513,1.6954,2.9312,3.2816,4.747,4.755,7.0995,5.7534,15.8065,8.6301,26.1248,8.6301,15.0002,0,28.9928-4.2485,41.9778-12.7371,12.985-8.4969,23.8694-18.3604,32.649-29.5885,8.7797-11.2363,16.3679-22.9695,22.7723-35.2036,6.4003-12.2351,11.9349-25.3882,16.5988-39.4489,4.6644-14.0607,8.3683-27.0294,11.1118-38.9039,2.744-11.8704,4.8442-21.5506,6.3107-29.0394h33.7458l3.5671-8.7797Z"/>
          <path class="uuid-5d1d2218-6777-4a5f-91db-db7351294655" d="M571.777,142.121c24.2162,0,44.7628-3.6102,61.6418-10.8378,16.877-7.2235,25.3185-18.0613,25.3185-32.5123,0-7.498-4.0344-14.1294-12.0989-19.8909-8.0625-5.7621-18.4157-8.6429-31.0576-8.6429-26.9392,0-50.3543,9.1054-70.2391,27.3127-19.8812,18.2108-29.8226,38.2944-29.8226,60.2527,0,15.7418,5.8989,27.6809,17.6955,35.8254,11.7972,8.1455,24.4616,12.2136,37.9988,12.2136,14.8383,0,27.4802-3.6614,37.9235-10.9832,10.4434-7.3218,19.5098-16.3883,27.2036-27.1923l-3.8438-2.7476c-2.932,4.7412-6.829,9.5767-11.6829,14.4982-4.8519,4.9256-9.4783,8.6639-13.8774,11.2189-4.397,2.555-8.2428,4.3304-11.5395,5.3333-3.2968,1.003-7.0524,1.5049-11.2609,1.5049-5.4973,0-9.6688-2.1011-12.5066-6.3025-2.8378-4.2003-4.2556-11.4155-4.2556-21.6489,0-3.6522,.4589-8.2643,1.3748-13.8374,.9179-5.5731,1.926-10.0919,3.0283-13.5638Zm8.628-20.9124c3.1984-6.4644,7.0872-13.6151,11.6604-21.4471,4.5712-7.8279,8.8698-13.9286,12.8959-18.301,4.02-4.3729,8.0461-6.5591,12.0723-6.5591,2.5591,0,4.2044,.7289,4.9379,2.1862,.7294,1.4578,1.0982,3.5538,1.0982,6.2845,0,9.8348-5.2125,21.1736-15.6394,34.0131-10.4249,12.8386-22.0424,19.9852-34.844,21.4431,2.0099-5.2822,4.6162-11.1544,7.8187-17.6198Z"/>
          <path class="uuid-5d1d2218-6777-4a5f-91db-db7351294655" d="M785.7389,78.8799c-8.0635-5.7621-18.4167-8.6429-31.0586-8.6429-26.9393,0-50.3544,9.1054-70.2381,27.3127-19.8828,18.2108-29.8242,38.2944-29.8242,60.2527,0,15.7418,5.8989,27.6809,17.6965,35.8254,11.7977,8.1455,24.4611,12.2136,37.9993,12.2136,14.8373,0,27.4791-3.6614,37.9225-10.9832,10.4434-7.3218,19.5099-16.3883,27.2046-27.1923l-3.8448-2.7476c-2.932,4.7412-6.829,9.5767-11.6819,14.4982-4.8528,4.9256-9.4783,8.6639-13.8773,11.2189-4.3981,2.555-8.2439,4.3304-11.5396,5.3333-3.2968,1.003-7.0524,1.5049-11.2619,1.5049-5.4963,0-9.6678-2.1011-12.5056-6.3025-2.8378-4.2003-4.2567-11.4155-4.2567-21.6489,0-3.6522,.459-8.2643,1.3759-13.8374,.9179-5.5731,1.925-10.0919,3.0273-13.5638,24.2162,0,44.7639-3.6102,61.6418-10.8378,16.877-7.2235,25.3185-18.0613,25.3185-32.5123,0-7.498-4.0343-14.1294-12.0978-19.8909Zm-39.2082,38.5054c-10.426,12.8386-22.0433,19.9852-34.845,21.4431,2.011-5.2822,4.6172-11.1544,7.8197-17.6198,3.1984-6.4644,7.0862-13.6151,11.6605-21.4471,4.5701-7.8279,8.8698-13.9286,12.8949-18.301,4.021-4.3729,8.0471-6.5591,12.0722-6.5591,2.5591,0,4.2054,.7289,4.939,2.1862,.7284,1.4578,1.0972,3.5538,1.0972,6.2845,0,9.8348-5.2125,21.1736-15.6384,34.0131Z"/>
          <path class="uuid-5d1d2218-6777-4a5f-91db-db7351294655" d="M1095.5145,0c-2.3788,4.5742-5.7186,8.5527-10.0141,11.9349-4.2997,3.3869-8.6424,5.0757-13.0322,5.0757-9.5132-3.8412-18.8409-7.6353-27.9852-11.3859-9.1484-3.747-20.3028-5.6248-33.4722-5.6248-37.6818,0-69.5518,12.209-95.6161,36.6276-26.0643,24.4185-39.0965,52.541-39.0965,84.3669,0,24.3279,8.2305,44.6317,24.6926,60.9083,16.4621,16.2818,37.1296,24.4191,62.0066,24.4191,18.8367,0,35.4822-5.0762,49.9343-15.2276,14.447-10.1514,25.5153-24.0963,33.1977-41.84l-4.9389-2.1954c-3.1124,6.4049-6.4039,12.3038-9.8769,17.6965-3.477,5.3979-8.0031,10.5632-13.5812,15.5021-5.5813,4.9379-11.6174,8.963-18.1074,12.0712-6.4951,3.1123-14.1304,4.6644-22.91,4.6644-12.0712,0-20.4401-3.7465-25.1034-11.2486-4.6644-7.498-6.9971-18.3829-6.9971-32.6496,0-7.8617,1.1402-16.8729,3.4299-27.0242,2.2845-10.1524,5.2125-19.9821,8.7797-29.4943,3.5671-9.509,8.1362-19.4801,13.7186-29.9061,5.5771-10.426,11.7977-20.2086,18.6564-29.357,6.8588-9.1438,13.9449-16.23,21.2627-21.2632,7.3137-5.0286,14.5412-7.5447,21.6755-7.5447,10.9741,0,17.8759,3.7034,20.7136,11.1113,2.8337,7.4079,4.2535,20.5349,4.2535,39.3716,0,1.2816-.1373,7.1805-.4118,17.696-.2746,10.5202-.4119,17.3318-.4119,20.4401h5.2135L1100.4534,0h-4.9389Z"/>
          <path class="uuid-5d1d2218-6777-4a5f-91db-db7351294655" d="M1127.8875,138.4165c12.6213-31.0033,23.411-57.522,32.375-79.5653,8.96-22.0392,16.5522-40.6486,22.7728-55.8331h-80.9376V7.4078c8.0471,0,13.5813,.4114,16.5994,1.2345,3.0181,.8232,4.5271,2.701,4.5271,5.6248,0,2.0146-.4119,4.2997-1.2345,6.8588-.8237,2.5637-2.3327,6.5847-4.5271,12.0723l-47.1908,116.8788c-1.8307,4.3898-3.2025,8.3257-4.1152,11.7977-.918,3.4771-1.3718,7.3177-1.3718,11.5231,0,8.416,3.1973,15.913,9.6022,22.4982,6.4009,6.5842,14.5413,9.8768,24.4181,9.8768,11.3397,0,20.6204-3.7465,27.8479-11.2486,7.2235-7.498,15.7767-19.3859,25.6536-35.6677l-3.8417-1.9208c-2.9279,4.7586-6.1724,9.7877-9.7396,15.0903-3.5662,5.3077-7.8668,10.9751-12.8949,17.0112-5.0332,6.0351-10.0141,9.0532-14.9531,9.0532-1.0972,0-2.0151-.3637-2.7435-1.0972-.7335-.7284-1.0972-1.9208-1.0972-3.5662,0-2.011,.3166-3.9319,.96-5.7626,.6392-1.8256,7.2706-18.2446,19.8909-49.2479Z"/>
          <path class="uuid-5d1d2218-6777-4a5f-91db-db7351294655" d="M1296.6215,177.2395l46.6417-104.2584h-53.5015l-39.7819,82.5829c-2.5642,5.3077-5.488,10.5632-8.7806,15.7767-3.2916,5.2125-7.4069,10.8839-12.3458,17.0102-4.939,6.1304-9.6033,9.1915-13.9932,9.1915-1.466,0-2.6062-.4549-3.4288-1.3718-.8237-.9138-1.2345-2.2856-1.2345-4.1163,0-4.7535,3.2916-13.2586,9.8768-25.5153,6.5842-12.2526,11.2015-21.3057,13.8548-27.1625,2.6503-5.8507,5.3508-11.6133,8.0943-17.2847,2.9238-6.9489,4.3898-14.0823,4.3898-21.4,0-8.4108-2.469-15.5913-7.4079-21.5378-4.9389-5.9419-12.1665-8.9169-21.6746-8.9169-13.5382,0-24.1014,4.3002-31.6896,12.8954-7.5912,8.5994-15.8699,20.6716-24.8299,36.2158l3.5672,1.6463c2.9238-5.487,6.3527-11.1543,10.2886-17.0101,3.9309-5.8517,7.4079-10.426,10.426-13.7186s6.0361-6.0361,9.0542-8.231c3.0181-2.1949,5.4399-3.2921,7.2706-3.2921,1.4619,0,2.512,.3683,3.1554,1.0972,.6382,.733,.9599,1.9209,.9599,3.5667,0,2.3793-3.2926,9.7401-9.8768,22.0869-6.5853,12.3458-11.7557,22.5443-15.5021,30.5914-3.7505,8.0502-6.7215,15.0893-8.9169,21.1254-2.1944,6.0361-3.2916,11.5231-3.2916,16.4621,0,10.7947,3.0601,18.8408,9.1905,24.1445,6.1263,5.3026,13.487,7.956,22.0864,7.956,12.985,0,23.0893-4.2054,30.3169-12.6204,7.2234-8.4108,15.8668-21.3068,25.9281-38.6857-.5491,2.0151-1.2816,4.939-2.1954,8.7797-.9169,3.8417-1.3718,7.7767-1.3718,11.7977,0,9.6976,2.512,17.2417,7.5452,22.6355,5.0291,5.3928,11.9349,8.0933,20.7146,8.0933,12.985,0,23.411-4.48,31.2778-13.444,7.8617-8.9589,16.8257-21.9491,26.887-38.9592l-3.2927-1.9209c-4.5732,8.0513-8.8738,15.0473-12.8949,20.9892-4.0251,5.946-8.2776,11.4801-12.7576,16.5994-4.4841,5.1223-9.3759,7.6814-14.6785,7.6814-1.0972,0-1.9208-.3166-2.4689-.9599-.5491-.6393-.8237-1.5992-.8237-2.8808,0-1.4619,.6393-3.8407,1.9208-7.1334,1.2775-3.2926,2.3747-6.1263,3.2927-8.5051Z"/>
          <path class="uuid-5d1d2218-6777-4a5f-91db-db7351294655" d="M1488.1271,81.1517c-7.3176-7.3218-15.8228-10.9833-25.5162-10.9833-9.5121,0-16.462,1.5219-20.8519,4.5615-4.3898,3.0436-9.0532,7.4207-13.9921,13.1305L1463.16,3.0181h-80.9377V7.4078c5.1183,0,9.9199,.2316,14.4041,.6859,4.48,.4589,6.7224,2.5166,6.7224,6.1734,0,3.1123-2.1052,10.0141-6.3105,20.7141-4.2096,10.7005-8.3679,20.899-12.4832,30.5919-4.1162,9.6971-8.7375,20.6245-13.8558,32.7859-5.1234,12.1665-8.7367,20.9461-10.8378,26.3389-2.1042,5.3979-4.5271,11.2968-7.2706,17.6965-1.8297,5.1234-2.7435,10.1514-2.7435,15.0903,0,14.451,5.5771,26.1115,16.7367,34.9813,11.1543,8.8739,23.9591,13.3068,38.4111,13.3068,28.8981,0,51.807-9.8338,68.728-29.5065,16.9159-19.6728,25.3781-40.6752,25.3781-63.0013,0-14.0864-3.6604-24.791-10.9741-32.1133Zm-43.6235,41.8068c-6.2206,16.6372-12.4841,31.0801-18.7949,43.3275-6.3096,12.2474-11.5231,21.1603-15.6383,26.7333-4.1154,5.5771-8.2777,8.3637-12.483,8.3637-5.488,0-8.2316-2.9238-8.2316-8.7755,0-6.9448,3.7474-19.8787,11.2496-38.8005,7.4969-18.9188,13.6233-33.4517,18.3818-43.598,4.7546-10.1432,8.8699-17.2724,12.3469-21.3877,3.4718-4.1152,6.4468-6.9494,8.9158-8.501,2.47-1.5521,4.7075-2.3322,6.7225-2.3322,2.3746,0,4.1154,.8231,5.2125,2.4689,1.0981,1.6463,1.6462,4.2059,1.6462,7.6779,0,6.5811-3.1123,18.1893-9.3276,34.8235Z"/>
        </g>
      </g>
    </symbol>
    <filter id="uuid-1125aa1b-c987-4905-aa4b-80eb2b06c496" data-name="uuid-b63a64e7-3b06-4a01-a2dd-da4a36d6f386" y="0" width="1000" height="800" color-interpolation-filters="sRGB" filterUnits="userSpaceOnUse">
      <feFlood flood-color="#fff" result="bg"/>
      <feBlend in="SourceGraphic" in2="bg"/>
    </filter>
    <mask id="uuid-280ec084-296d-451a-87ce-20fb903aeba3" data-name="mask" y="0" width="1000" height="800" maskUnits="userSpaceOnUse">
      <g class="uuid-49a4f523-cc41-49a7-be63-714d63ef97e6">
        <rect y="279.733" width="1000" height="221.0093"/>
      </g>
    </mask>
  </defs>
  <g id="uuid-d816973f-051b-4e79-b1ab-3a7f32936667" data-name="logo_vertical">
    <g class="uuid-e07ba50f-58de-4d1b-950a-83d1a21a7fd3">
      <use width="800" height="800" transform="translate(334.4262) scale(.4139)" xlink:href="#uuid-506728a8-fc5c-4041-9d53-7822606688aa"/>
    </g>
    <use width="1500" height="300" transform="translate(1.4646 301.0679) scale(.6656)" xlink:href="#uuid-d48bbdda-ebab-4172-aace-2cf3c1a50b27"/>
  </g>
</svg>