<?xml version="1.0" encoding="UTF-8"?>
<svg id="uuid-f2e5742f-7965-4ca0-b196-de92a2d81cbe" data-name="Logo" xmlns="http://www.w3.org/2000/svg" width="800" height="800" xmlns:xlink="http://www.w3.org/1999/xlink" viewBox="0 0 800 800">
  <defs>
    <style>
      .uuid-9ad67e1b-698a-47e0-bddb-fe07030ab52c {
        fill: #331f00;
      }
    </style>
    <symbol id="uuid-2c8b128c-4f2e-4fc2-ad28-ffcedc52309d" data-name="brandmark" viewBox="0 0 800 800">
      <g>
        <path id="uuid-e3b12a3d-4bb2-4773-b704-3202a3c71cd9" data-name="coffee_bean_top" class="uuid-9ad67e1b-698a-47e0-bddb-fe07030ab52c" d="M684.9676,71.2691c-14.5232-53.3599-116.2924-65.7543-141.627-68.8398C369.7297-18.7147,193.5934,101.0396,99.4184,249.6498-2.0219,409.7247-27.7179,633.816,31.029,665.6533c41.6019,22.5457,50.6119-177.6927,294.45-284.3458-.3379-29.707-2.8452-59.3604-7.5084-88.7186-1.7546-11.0466-3.496-21.5541-4.914-29.1937-.7766-4.1841-4.4213-7.2162-8.6769-7.2188h-.2151c-4.8746-.0031-8.8248-3.9556-8.8248-8.8303h0c0-2.9885,1.5116-5.7742,4.0171-7.4032l13.9741-9.0852,16.5276-10.7297,18.0265-11.6972,16.6036-10.7753,14.0051-9.0668c2.5137-1.6274,4.0314-4.4179,4.0314-7.4125v-6.1649c0-2.8359,1.3629-5.4879,3.6548-7.1581,3.0851-2.2484,7.9565-4.8533,13.9667-4.8533,5.9996,0,10.824,2.6155,13.8702,4.8726,2.2592,1.6739,3.5994,4.306,3.5994,7.1177v6.2122c0,2.9913,1.5144,5.7792,4.0237,7.4075l78.9962,51.2581c2.5093,1.6282,4.0237,4.4162,4.0237,7.4075v.0449c0,4.8768-3.9534,8.8303-8.8302,8.8303h-.397c-4.311,0-7.9919,3.1129-8.7076,7.3641l-4.3527,25.8503c-2.1024,12.486-3.8136,25.028-5.1339,37.6072,170.9121-74.0197,222.528-201.3297,207.7288-255.7031Z"/>
        <path id="uuid-3cf2dd2e-f9ba-46d1-9cb5-fd50166967fb" data-name="coffee_bean_bottom" class="uuid-9ad67e1b-698a-47e0-bddb-fe07030ab52c" d="M768.971,134.3467c-41.6036-22.5467-50.6127,177.7097-294.481,284.3593l6.6107,208.5996c.1575,4.9698-3.8176,9.0896-8.7898,9.1099l-143.152,.5845c-4.9684,.0203-8.9755-4.061-8.8641-9.0282l3.4859-155.3859c-171.7279,73.954-223.577,201.6634-208.7484,256.1451,14.5233,53.3599,116.2924,65.7543,141.627,68.8398,173.6108,21.144,349.7473-98.6103,443.9222-247.2205,101.4404-160.075,127.1364-384.1662,68.3895-416.0035Z"/>
      </g>
    </symbol>
  </defs>
  <use width="800" height="800" transform="translate(-.0006)" xlink:href="#uuid-2c8b128c-4f2e-4fc2-ad28-ffcedc52309d"/>
</svg>